<?xml version="1.0" encoding="UTF-8"?>
<svg xmlns="http://www.w3.org/2000/svg" xmlns:xlink="http://www.w3.org/1999/xlink" width="375pt" height="374.999991pt" viewBox="0 0 375 374.999991" version="1.2">
<defs>
<clipPath id="clip1">
  <path d="M 189 142 L 328.632812 142 L 328.632812 318 L 189 318 Z M 189 142 "/>
</clipPath>
<clipPath id="clip2">
  <path d="M 46.632812 142 L 186 142 L 186 319 L 46.632812 319 Z M 46.632812 142 "/>
</clipPath>
</defs>
<g id="surface1">
<g clip-path="url(#clip1)" clip-rule="nonzero">
<path style=" stroke:none;fill-rule:nonzero;fill:rgb(93.328857%,25.878906%,39.99939%);fill-opacity:1;" d="M 298.871094 188.148438 C 300.359375 187.035156 301.847656 187.777344 301.847656 190.007812 C 301.847656 191.871094 300.359375 194.101562 298.871094 195.21875 C 297.382812 196.332031 295.894531 195.21875 295.894531 193.355469 C 295.894531 191.496094 297.382812 189.265625 298.871094 188.148438 M 307.800781 183.316406 C 306.3125 184.429688 304.824219 186.664062 304.824219 188.523438 C 304.824219 190.382812 306.3125 191.125 307.800781 190.382812 C 309.289062 189.636719 310.777344 187.035156 310.777344 185.175781 C 310.777344 182.941406 309.289062 182.199219 307.800781 183.316406 M 316.730469 178.109375 C 315.242188 179.222656 313.753906 181.453125 313.753906 183.316406 C 313.753906 185.175781 315.242188 185.917969 316.730469 185.175781 C 318.21875 184.058594 319.707031 181.828125 319.707031 179.96875 C 319.707031 177.734375 318.21875 176.992188 316.730469 178.109375 M 325.285156 172.898438 C 323.796875 174.015625 322.308594 176.246094 322.308594 178.109375 C 322.308594 179.96875 323.796875 180.710938 325.285156 179.96875 C 326.773438 178.851562 328.261719 176.621094 328.261719 174.761719 C 328.261719 172.898438 327.148438 172.15625 325.285156 172.898438 M 299.246094 198.191406 C 297.757812 199.308594 296.269531 201.539062 296.269531 203.398438 C 296.269531 205.257812 297.757812 206.003906 299.246094 205.257812 C 300.730469 204.144531 302.21875 201.910156 302.21875 200.050781 C 302.21875 198.191406 300.730469 197.449219 299.246094 198.191406 M 307.800781 193.355469 C 306.3125 194.472656 304.824219 196.703125 304.824219 198.5625 C 304.824219 200.425781 306.3125 201.167969 307.800781 200.425781 C 309.289062 199.308594 310.777344 197.078125 310.777344 195.21875 C 310.777344 192.984375 309.660156 192.242188 307.800781 193.355469 M 316.730469 188.148438 C 315.242188 189.265625 313.753906 191.496094 313.753906 193.355469 C 313.753906 195.21875 315.242188 195.960938 316.730469 195.21875 C 318.21875 194.101562 319.707031 191.871094 319.707031 190.007812 C 319.707031 188.148438 318.21875 187.40625 316.730469 188.148438 M 325.285156 183.316406 C 323.796875 184.429688 322.308594 186.664062 322.308594 188.523438 C 322.308594 190.382812 323.796875 191.125 325.285156 190.382812 C 326.773438 189.265625 328.261719 187.035156 328.261719 185.175781 C 328.261719 182.941406 327.148438 182.199219 325.285156 183.316406 M 299.246094 208.605469 C 297.757812 209.722656 296.269531 211.953125 296.269531 213.8125 C 296.269531 215.671875 297.757812 216.417969 299.246094 215.671875 C 300.730469 214.558594 302.21875 212.324219 302.21875 210.464844 C 302.21875 208.234375 300.730469 207.492188 299.246094 208.605469 M 307.800781 203.398438 C 306.3125 204.515625 304.824219 206.746094 304.824219 208.605469 C 304.824219 210.464844 306.3125 211.210938 307.800781 210.464844 C 309.289062 209.351562 310.777344 207.117188 310.777344 205.257812 C 310.777344 203.027344 309.660156 202.285156 307.800781 203.398438 M 316.730469 198.191406 C 315.242188 199.308594 313.753906 201.539062 313.753906 203.398438 C 313.753906 205.257812 315.242188 206.003906 316.730469 205.257812 C 318.21875 204.144531 319.707031 201.910156 319.707031 200.050781 C 319.707031 198.191406 318.21875 197.449219 316.730469 198.191406 M 325.285156 193.355469 C 323.796875 194.472656 322.308594 196.703125 322.308594 198.5625 C 322.308594 200.425781 323.796875 201.167969 325.285156 200.425781 C 326.773438 199.308594 328.261719 197.078125 328.261719 195.21875 C 328.261719 192.984375 327.148438 192.242188 325.285156 193.355469 M 299.246094 218.648438 C 297.757812 219.765625 296.269531 221.996094 296.269531 223.855469 C 296.269531 225.714844 297.757812 226.460938 299.246094 225.714844 C 300.730469 224.601562 302.21875 222.367188 302.21875 220.507812 C 302.21875 218.277344 300.730469 217.535156 299.246094 218.648438 M 307.800781 213.441406 C 306.3125 214.558594 304.824219 216.789062 304.824219 218.648438 C 304.824219 220.507812 306.3125 221.253906 307.800781 220.507812 C 309.289062 219.394531 310.777344 217.160156 310.777344 215.300781 C 310.777344 213.441406 309.660156 212.699219 307.800781 213.441406 M 316.730469 208.234375 C 315.242188 209.351562 313.753906 211.582031 313.753906 213.441406 C 313.753906 215.300781 315.242188 216.046875 316.730469 215.300781 C 318.21875 214.1875 319.707031 211.953125 319.707031 210.09375 C 319.707031 208.234375 318.21875 207.492188 316.730469 208.234375 M 325.660156 203.398438 C 324.171875 204.515625 322.683594 206.746094 322.683594 208.605469 C 322.683594 210.464844 324.171875 211.210938 325.660156 210.464844 C 327.148438 209.351562 328.632812 207.117188 328.632812 205.257812 C 328.632812 203.027344 327.148438 202.285156 325.660156 203.398438 M 192.84375 249.519531 C 191.355469 250.636719 189.867188 252.867188 189.867188 254.726562 C 189.867188 256.585938 191.355469 257.332031 192.84375 256.585938 C 194.332031 255.472656 195.820312 253.238281 195.820312 251.378906 C 195.820312 249.519531 194.332031 248.777344 192.84375 249.519531 M 201.398438 244.683594 C 199.910156 245.800781 198.421875 248.03125 198.421875 249.890625 C 198.421875 251.75 199.910156 252.496094 201.398438 251.75 C 202.886719 250.636719 204.375 248.40625 204.375 246.542969 C 204.375 244.3125 203.261719 243.570312 201.398438 244.683594 M 210.328125 239.476562 C 208.839844 240.59375 207.351562 242.824219 207.351562 244.683594 C 207.351562 246.542969 208.839844 247.289062 210.328125 246.542969 C 211.816406 245.429688 213.304688 243.195312 213.304688 241.335938 C 213.304688 239.476562 211.816406 238.363281 210.328125 239.476562 M 218.886719 234.269531 C 217.398438 235.386719 215.910156 237.617188 215.910156 239.476562 C 215.910156 241.335938 217.398438 242.082031 218.886719 241.335938 C 220.375 240.222656 221.863281 237.988281 221.863281 236.128906 C 221.863281 234.269531 220.746094 233.527344 218.886719 234.269531 M 192.84375 259.5625 C 191.355469 260.679688 189.867188 262.910156 189.867188 264.769531 C 189.867188 266.628906 191.355469 267.375 192.84375 266.628906 C 194.332031 265.515625 195.820312 263.28125 195.820312 261.421875 C 195.820312 259.5625 194.332031 258.820312 192.84375 259.5625 M 201.398438 254.726562 C 199.910156 255.84375 198.421875 258.074219 198.421875 259.933594 C 198.421875 261.792969 199.910156 262.539062 201.398438 261.792969 C 202.886719 260.679688 204.375 258.445312 204.375 256.585938 C 204.375 254.355469 203.261719 253.613281 201.398438 254.726562 M 210.328125 249.519531 C 208.839844 250.636719 207.351562 252.867188 207.351562 254.726562 C 207.351562 256.585938 208.839844 257.332031 210.328125 256.585938 C 211.816406 255.472656 213.304688 253.238281 213.304688 251.378906 C 213.304688 249.519531 211.816406 248.777344 210.328125 249.519531 M 218.886719 244.683594 C 217.398438 245.800781 215.910156 248.03125 215.910156 249.890625 C 215.910156 251.75 217.398438 252.496094 218.886719 251.75 C 220.375 250.636719 221.863281 248.40625 221.863281 246.542969 C 222.234375 244.3125 220.746094 243.570312 218.886719 244.683594 M 192.84375 269.976562 C 191.355469 271.09375 189.867188 273.324219 189.867188 275.183594 C 189.867188 277.042969 191.355469 277.789062 192.84375 277.042969 C 194.332031 276.300781 195.820312 273.695312 195.820312 271.835938 C 195.820312 269.605469 194.332031 268.859375 192.84375 269.976562 M 201.398438 264.769531 C 199.910156 265.886719 198.421875 268.117188 198.421875 269.976562 C 198.421875 271.835938 199.910156 272.582031 201.398438 271.835938 C 202.886719 270.722656 204.375 268.488281 204.375 266.628906 C 204.375 264.398438 203.261719 263.652344 201.398438 264.769531 M 210.328125 259.5625 C 208.839844 260.679688 207.351562 262.910156 207.351562 264.769531 C 207.351562 266.628906 208.839844 267.375 210.328125 266.628906 C 211.816406 265.515625 213.304688 263.28125 213.304688 261.421875 C 213.304688 259.5625 211.816406 258.820312 210.328125 259.5625 M 219.257812 254.726562 C 217.769531 255.84375 216.28125 258.074219 216.28125 259.933594 C 216.28125 261.792969 217.769531 262.539062 219.257812 261.792969 C 220.746094 260.679688 222.234375 258.445312 222.234375 256.585938 C 222.234375 254.355469 220.746094 253.613281 219.257812 254.726562 M 192.84375 280.019531 C 191.355469 281.136719 189.867188 283.367188 189.867188 285.226562 C 189.867188 287.085938 191.355469 287.832031 192.84375 287.085938 C 194.332031 286.34375 195.820312 283.738281 195.820312 281.878906 C 195.820312 279.648438 194.332031 278.902344 192.84375 280.019531 M 201.398438 274.8125 C 199.910156 275.929688 198.421875 278.160156 198.421875 280.019531 C 198.421875 281.878906 199.910156 282.621094 201.398438 281.878906 C 202.886719 280.761719 204.375 278.53125 204.375 276.671875 C 204.375 274.8125 203.261719 274.066406 201.398438 274.8125 M 210.328125 269.605469 C 208.839844 270.722656 207.351562 272.953125 207.351562 274.8125 C 207.351562 276.671875 208.839844 277.414062 210.328125 276.671875 C 211.816406 275.554688 213.304688 273.324219 213.304688 271.464844 C 213.304688 269.605469 211.816406 268.859375 210.328125 269.605469 M 219.257812 264.769531 C 217.769531 265.886719 216.28125 268.117188 216.28125 269.976562 C 216.28125 271.835938 217.769531 272.582031 219.257812 271.835938 C 220.746094 270.722656 222.234375 268.488281 222.234375 266.628906 C 222.234375 264.398438 220.746094 263.652344 219.257812 264.769531 M 245.671875 188.148438 C 244.183594 189.265625 242.695312 191.496094 242.695312 193.355469 C 242.695312 195.21875 244.183594 195.960938 245.671875 195.21875 C 247.160156 194.101562 248.648438 191.871094 248.648438 190.007812 C 248.648438 187.777344 247.53125 187.035156 245.671875 188.148438 M 245.671875 178.109375 C 244.183594 179.222656 242.695312 181.453125 242.695312 183.316406 C 242.695312 185.175781 244.183594 185.917969 245.671875 185.175781 C 247.160156 184.058594 248.648438 181.828125 248.648438 179.96875 C 248.648438 177.734375 247.53125 176.992188 245.671875 178.109375 M 245.671875 168.066406 C 244.183594 169.179688 242.695312 171.414062 242.695312 173.273438 C 242.695312 175.132812 244.183594 175.875 245.671875 175.132812 C 247.160156 174.015625 248.648438 171.785156 248.648438 169.925781 C 248.648438 167.691406 247.53125 166.949219 245.671875 168.066406 M 245.671875 158.023438 C 244.183594 159.136719 242.695312 161.371094 242.695312 163.230469 C 242.695312 165.089844 244.183594 165.832031 245.671875 165.089844 C 247.160156 163.972656 248.648438 161.742188 248.648438 159.882812 C 248.648438 157.652344 247.160156 156.90625 245.671875 158.023438 M 254.601562 182.941406 C 253.113281 184.058594 251.625 186.289062 251.625 188.148438 C 251.625 190.007812 253.113281 190.753906 254.601562 190.007812 C 256.089844 188.894531 257.578125 186.664062 257.578125 184.800781 C 257.578125 182.941406 256.089844 182.199219 254.601562 182.941406 M 254.601562 172.898438 C 253.113281 174.015625 251.625 176.246094 251.625 178.109375 C 251.625 179.96875 253.113281 180.710938 254.601562 179.96875 C 256.089844 178.851562 257.578125 176.621094 257.578125 174.761719 C 257.578125 172.898438 256.089844 172.15625 254.601562 172.898438 M 254.601562 162.859375 C 253.113281 163.972656 251.625 166.207031 251.625 168.066406 C 251.625 169.925781 253.113281 170.667969 254.601562 169.925781 C 256.089844 168.808594 257.578125 166.578125 257.578125 164.71875 C 257.578125 162.859375 256.089844 161.742188 254.601562 162.859375 M 254.601562 152.816406 C 253.113281 153.929688 251.625 156.164062 251.625 158.023438 C 251.625 159.882812 253.113281 160.625 254.601562 159.882812 C 256.089844 158.765625 257.578125 156.535156 257.578125 154.675781 C 257.578125 152.445312 256.089844 151.699219 254.601562 152.816406 M 263.15625 178.109375 C 261.667969 179.222656 260.179688 181.453125 260.179688 183.316406 C 260.179688 185.175781 261.667969 185.917969 263.15625 185.175781 C 264.644531 184.058594 266.132812 181.828125 266.132812 179.96875 C 266.503906 177.734375 265.015625 176.992188 263.15625 178.109375 M 263.15625 168.066406 C 261.667969 169.179688 260.179688 171.414062 260.179688 173.273438 C 260.179688 175.132812 261.667969 175.875 263.15625 175.132812 C 264.644531 174.015625 266.132812 171.785156 266.132812 169.925781 C 266.132812 167.691406 265.015625 166.949219 263.15625 168.066406 M 263.15625 157.652344 C 261.667969 158.765625 260.179688 161 260.179688 162.859375 C 260.179688 164.71875 261.667969 165.460938 263.15625 164.71875 C 264.644531 163.601562 266.132812 161.371094 266.132812 159.511719 C 266.132812 157.652344 265.015625 156.90625 263.15625 157.652344 M 263.15625 147.609375 C 261.667969 148.722656 260.179688 150.957031 260.179688 152.816406 C 260.179688 154.675781 261.667969 155.417969 263.15625 154.675781 C 264.644531 153.558594 266.132812 151.328125 266.132812 149.46875 C 266.132812 147.609375 265.015625 146.863281 263.15625 147.609375 M 272.085938 172.898438 C 270.597656 174.015625 269.109375 176.246094 269.109375 178.109375 C 269.109375 179.96875 270.597656 180.710938 272.085938 179.96875 C 273.574219 178.851562 275.0625 176.621094 275.0625 174.761719 C 275.0625 172.898438 273.945312 172.15625 272.085938 172.898438 M 272.085938 162.859375 C 270.597656 163.972656 269.109375 166.207031 269.109375 168.066406 C 269.109375 169.925781 270.597656 170.667969 272.085938 169.925781 C 273.574219 168.808594 275.0625 166.578125 275.0625 164.71875 C 275.0625 162.484375 273.574219 161.742188 272.085938 162.859375 M 272.085938 152.816406 C 270.597656 153.929688 269.109375 156.164062 269.109375 158.023438 C 269.109375 159.882812 270.597656 160.625 272.085938 159.882812 C 273.574219 158.765625 275.0625 156.535156 275.0625 154.675781 C 275.0625 152.445312 273.574219 151.699219 272.085938 152.816406 M 272.085938 142.773438 C 270.597656 143.890625 269.109375 146.121094 269.109375 147.980469 C 269.109375 149.839844 270.597656 150.582031 272.085938 149.839844 C 273.574219 148.722656 275.0625 146.492188 275.0625 144.632812 C 275.0625 142.402344 273.574219 141.65625 272.085938 142.773438 M 246.042969 310.148438 C 244.554688 311.261719 243.066406 313.492188 243.066406 315.355469 C 243.066406 317.214844 244.554688 317.957031 246.042969 317.214844 C 247.53125 316.097656 249.019531 313.867188 249.019531 312.007812 C 249.019531 310.148438 247.902344 309.402344 246.042969 310.148438 M 246.042969 300.105469 C 244.554688 301.21875 243.066406 303.453125 243.066406 305.3125 C 243.066406 307.171875 244.554688 307.914062 246.042969 307.171875 C 247.53125 306.054688 249.019531 303.824219 249.019531 301.964844 C 249.019531 300.105469 247.902344 299.359375 246.042969 300.105469 M 246.042969 290.0625 C 244.554688 291.175781 243.066406 293.410156 243.066406 295.269531 C 243.066406 297.128906 244.554688 297.871094 246.042969 297.128906 C 247.53125 296.011719 249.019531 293.78125 249.019531 291.921875 C 249.019531 290.0625 247.53125 289.316406 246.042969 290.0625 M 246.042969 280.019531 C 244.554688 281.136719 243.066406 283.367188 243.066406 285.226562 C 243.066406 287.085938 244.554688 287.832031 246.042969 287.085938 C 247.53125 285.96875 249.019531 283.738281 249.019531 281.878906 C 249.019531 280.019531 247.53125 279.277344 246.042969 280.019531 M 254.972656 305.3125 C 253.484375 306.425781 251.996094 308.660156 251.996094 310.519531 C 251.996094 312.378906 253.484375 313.121094 254.972656 312.378906 C 256.460938 311.261719 257.949219 309.03125 257.949219 307.171875 C 257.949219 304.9375 256.460938 304.195312 254.972656 305.3125 M 254.972656 295.269531 C 253.484375 296.386719 251.996094 298.617188 251.996094 300.476562 C 251.996094 302.335938 253.484375 303.078125 254.972656 302.335938 C 256.460938 301.21875 257.949219 298.988281 257.949219 297.128906 C 257.949219 294.898438 256.460938 294.152344 254.972656 295.269531 M 254.972656 285.226562 C 253.484375 286.34375 251.996094 288.574219 251.996094 290.433594 C 251.996094 292.292969 253.484375 293.039062 254.972656 292.292969 C 256.460938 291.175781 257.949219 288.945312 257.949219 287.085938 C 257.949219 284.855469 256.460938 284.109375 254.972656 285.226562 M 254.972656 274.8125 C 253.484375 275.929688 251.996094 278.160156 251.996094 280.019531 C 251.996094 281.878906 253.484375 282.621094 254.972656 281.878906 C 256.460938 280.761719 257.949219 278.53125 257.949219 276.671875 C 257.949219 274.8125 256.460938 274.066406 254.972656 274.8125 M 263.527344 300.105469 C 262.039062 301.21875 260.554688 303.453125 260.554688 305.3125 C 260.554688 307.171875 262.042969 307.914062 263.527344 307.171875 C 265.015625 306.054688 266.503906 303.824219 266.503906 301.964844 C 266.503906 300.105469 265.390625 299.359375 263.527344 300.105469 M 263.527344 290.0625 C 262.039062 291.175781 260.554688 293.410156 260.554688 295.269531 C 260.554688 297.128906 262.042969 297.871094 263.527344 297.128906 C 265.015625 296.011719 266.503906 293.78125 266.503906 291.921875 C 266.503906 290.0625 265.390625 289.316406 263.527344 290.0625 M 263.527344 280.019531 C 262.039062 281.136719 260.554688 283.367188 260.554688 285.226562 C 260.554688 287.085938 262.042969 287.832031 263.527344 287.085938 C 265.015625 285.96875 266.503906 283.738281 266.503906 281.878906 C 266.503906 279.648438 265.390625 278.902344 263.527344 280.019531 M 263.527344 269.976562 C 262.039062 271.09375 260.554688 273.324219 260.554688 275.183594 C 260.554688 277.042969 262.042969 277.789062 263.527344 277.042969 C 265.015625 275.929688 266.503906 273.695312 266.503906 271.835938 C 266.503906 269.605469 265.390625 268.859375 263.527344 269.976562 M 272.457031 295.269531 C 270.96875 296.386719 269.480469 298.617188 269.480469 300.476562 C 269.480469 302.335938 270.96875 303.078125 272.457031 302.335938 C 273.945312 301.21875 275.433594 298.988281 275.433594 297.128906 C 275.433594 295.269531 273.945312 294.152344 272.457031 295.269531 M 272.457031 284.855469 C 270.96875 285.96875 269.480469 288.203125 269.480469 290.0625 C 269.480469 291.921875 270.96875 292.664062 272.457031 291.921875 C 273.945312 290.804688 275.433594 288.574219 275.433594 286.714844 C 275.433594 284.855469 273.945312 284.109375 272.457031 284.855469 M 272.457031 274.8125 C 270.96875 275.929688 269.480469 278.160156 269.480469 280.019531 C 269.480469 281.878906 270.96875 282.621094 272.457031 281.878906 C 273.945312 280.761719 275.433594 278.53125 275.433594 276.671875 C 275.433594 274.8125 273.945312 274.066406 272.457031 274.8125 M 272.457031 264.769531 C 270.96875 265.886719 269.480469 268.117188 269.480469 269.976562 C 269.480469 271.835938 270.96875 272.582031 272.457031 271.835938 C 273.945312 270.722656 275.433594 268.488281 275.433594 266.628906 C 275.433594 264.769531 273.945312 264.027344 272.457031 264.769531 "/>
</g>
<g clip-path="url(#clip2)" clip-rule="nonzero">
<path style=" stroke:none;fill-rule:nonzero;fill:rgb(23.529053%,73.329163%,69.40918%);fill-opacity:1;" d="M 156.011719 234.640625 C 157.5 235.757812 158.988281 237.988281 158.988281 239.851562 C 158.988281 241.710938 157.5 242.453125 156.011719 241.710938 C 154.523438 240.59375 153.035156 238.363281 153.035156 236.503906 C 153.035156 234.269531 154.523438 233.527344 156.011719 234.640625 M 164.941406 239.851562 C 163.453125 238.734375 161.964844 239.476562 161.964844 241.710938 C 161.964844 243.570312 163.453125 245.800781 164.941406 246.917969 C 166.429688 248.03125 167.917969 246.917969 167.917969 245.058594 C 167.917969 242.824219 166.429688 240.59375 164.941406 239.851562 M 173.496094 244.683594 C 172.007812 243.570312 170.519531 244.3125 170.519531 246.542969 C 170.519531 248.40625 172.007812 250.636719 173.496094 251.75 C 174.984375 252.867188 176.472656 251.75 176.472656 249.890625 C 176.472656 248.03125 175.359375 245.800781 173.496094 244.683594 M 182.425781 249.890625 C 180.9375 248.777344 179.449219 249.519531 179.449219 251.75 C 179.449219 253.613281 180.9375 255.84375 182.425781 256.960938 C 183.914062 258.074219 185.402344 257.332031 185.402344 255.097656 C 185.402344 253.238281 183.914062 250.636719 182.425781 249.890625 M 156.011719 244.683594 C 154.523438 243.570312 153.035156 244.3125 153.035156 246.542969 C 153.035156 248.40625 154.523438 250.636719 156.011719 251.75 C 157.5 252.867188 158.988281 251.75 158.988281 249.890625 C 158.988281 248.03125 157.5 245.800781 156.011719 244.683594 M 164.941406 249.890625 C 163.453125 248.777344 161.964844 249.519531 161.964844 251.75 C 161.964844 253.613281 163.453125 255.84375 164.941406 256.960938 C 166.429688 258.074219 167.917969 256.960938 167.917969 255.097656 C 167.917969 252.867188 166.429688 250.636719 164.941406 249.890625 M 173.496094 254.726562 C 172.007812 253.613281 170.519531 254.355469 170.519531 256.585938 C 170.519531 258.445312 172.007812 260.679688 173.496094 261.792969 C 174.984375 262.910156 176.472656 261.792969 176.472656 259.933594 C 176.472656 258.074219 175.359375 255.84375 173.496094 254.726562 M 182.425781 259.933594 C 180.9375 258.820312 179.449219 259.933594 179.449219 261.792969 C 179.449219 263.652344 180.9375 265.886719 182.425781 267 C 183.914062 268.117188 185.402344 267.375 185.402344 265.140625 C 185.402344 263.28125 183.914062 260.679688 182.425781 259.933594 M 156.011719 254.726562 C 154.523438 253.613281 153.035156 254.726562 153.035156 256.585938 C 153.035156 258.445312 154.523438 260.679688 156.011719 261.792969 C 157.5 262.910156 158.988281 261.792969 158.988281 259.933594 C 158.988281 258.074219 157.5 255.84375 156.011719 254.726562 M 164.941406 259.933594 C 163.453125 258.820312 161.964844 259.933594 161.964844 261.792969 C 161.964844 263.652344 163.453125 265.886719 164.941406 267 C 166.429688 268.117188 167.917969 267 167.917969 265.140625 C 167.917969 263.28125 166.429688 260.679688 164.941406 259.933594 M 173.496094 264.769531 C 172.007812 263.652344 170.519531 264.769531 170.519531 266.628906 C 170.519531 268.488281 172.007812 270.722656 173.496094 271.835938 C 174.984375 272.953125 176.472656 271.835938 176.472656 269.976562 C 176.472656 268.117188 175.359375 265.886719 173.496094 264.769531 M 182.425781 269.976562 C 180.9375 268.859375 179.449219 269.976562 179.449219 271.835938 C 179.449219 273.695312 180.9375 275.929688 182.425781 277.042969 C 183.914062 278.160156 185.402344 277.414062 185.402344 275.183594 C 185.402344 273.324219 183.914062 271.09375 182.425781 269.976562 M 156.011719 264.769531 C 154.523438 263.652344 153.035156 264.769531 153.035156 266.628906 C 153.035156 268.488281 154.523438 270.722656 156.011719 271.835938 C 157.5 272.953125 158.988281 271.835938 158.988281 269.976562 C 158.988281 268.117188 157.5 265.886719 156.011719 264.769531 M 164.941406 269.976562 C 163.453125 268.859375 161.964844 269.976562 161.964844 271.835938 C 161.964844 273.695312 163.453125 275.929688 164.941406 277.042969 C 166.429688 278.160156 167.917969 277.042969 167.917969 275.183594 C 167.917969 273.324219 166.429688 270.722656 164.941406 269.976562 M 173.496094 275.183594 C 172.007812 274.066406 170.519531 275.183594 170.519531 277.042969 C 170.519531 278.902344 172.007812 281.136719 173.496094 282.25 C 174.984375 283.367188 176.472656 282.25 176.472656 280.390625 C 176.472656 278.160156 175.359375 275.929688 173.496094 275.183594 M 182.425781 280.019531 C 180.9375 278.902344 179.449219 280.019531 179.449219 281.878906 C 179.449219 283.738281 180.9375 285.96875 182.425781 287.085938 C 183.914062 288.203125 185.402344 287.085938 185.402344 285.226562 C 185.402344 283.367188 183.914062 281.136719 182.425781 280.019531 M 49.609375 173.273438 C 48.121094 172.15625 46.632812 172.898438 46.632812 174.761719 C 46.632812 176.621094 48.121094 178.851562 49.609375 179.96875 C 51.097656 181.082031 52.585938 179.96875 52.585938 178.109375 C 52.585938 176.621094 51.472656 174.015625 49.609375 173.273438 M 58.539062 178.109375 C 57.050781 176.992188 55.5625 177.734375 55.5625 179.96875 C 55.5625 181.828125 57.050781 184.058594 58.539062 185.175781 C 60.027344 185.917969 61.515625 185.175781 61.515625 183.316406 C 61.515625 181.453125 60.027344 179.222656 58.539062 178.109375 M 67.097656 183.316406 C 65.609375 182.199219 64.121094 182.941406 64.121094 185.175781 C 64.121094 187.035156 65.609375 189.265625 67.097656 190.382812 C 68.585938 191.496094 70.074219 190.753906 70.074219 188.523438 C 70.445312 186.664062 68.957031 184.429688 67.097656 183.316406 M 76.023438 188.523438 C 74.535156 187.40625 73.050781 188.148438 73.050781 190.382812 C 73.050781 192.242188 74.535156 194.472656 76.023438 195.589844 C 77.511719 196.703125 79 195.960938 79 193.730469 C 79 191.496094 77.886719 189.265625 76.023438 188.523438 M 49.609375 183.316406 C 48.121094 182.199219 46.632812 182.941406 46.632812 185.175781 C 46.632812 187.035156 48.121094 189.265625 49.609375 190.382812 C 51.097656 191.496094 52.585938 190.382812 52.585938 188.523438 C 52.585938 186.664062 51.472656 184.429688 49.609375 183.316406 M 58.539062 188.523438 C 57.050781 187.40625 55.5625 188.148438 55.5625 190.382812 C 55.5625 192.242188 57.050781 194.472656 58.539062 195.589844 C 60.027344 196.703125 61.515625 195.589844 61.515625 193.730469 C 61.515625 191.496094 60.027344 189.265625 58.539062 188.523438 M 67.097656 193.355469 C 65.609375 192.242188 64.121094 193.355469 64.121094 195.21875 C 64.121094 197.078125 65.609375 199.308594 67.097656 200.425781 C 68.585938 201.539062 70.074219 200.796875 70.074219 198.5625 C 70.074219 196.703125 68.957031 194.472656 67.097656 193.355469 M 76.023438 198.5625 C 74.535156 197.449219 73.050781 198.5625 73.050781 200.425781 C 73.050781 202.285156 74.535156 204.515625 76.023438 205.632812 C 77.511719 206.746094 79 206.003906 79 203.769531 C 79 201.910156 77.511719 199.308594 76.023438 198.5625 M 49.609375 193.355469 C 48.121094 192.242188 46.632812 193.355469 46.632812 195.21875 C 46.632812 197.078125 48.121094 199.308594 49.609375 200.425781 C 51.097656 201.539062 52.585938 200.425781 52.585938 198.5625 C 52.585938 196.703125 51.472656 194.472656 49.609375 193.355469 M 58.539062 198.5625 C 57.050781 197.449219 55.5625 198.5625 55.5625 200.425781 C 55.5625 202.285156 57.050781 204.515625 58.539062 205.632812 C 60.027344 206.375 61.515625 205.632812 61.515625 203.769531 C 61.515625 201.539062 60.027344 199.308594 58.539062 198.5625 M 67.097656 203.398438 C 65.609375 202.285156 64.121094 203.398438 64.121094 205.257812 C 64.121094 207.117188 65.609375 209.351562 67.097656 210.464844 C 68.585938 211.582031 70.074219 210.839844 70.074219 208.605469 C 70.074219 206.746094 68.957031 204.515625 67.097656 203.398438 M 76.023438 208.605469 C 74.535156 207.492188 73.050781 208.605469 73.050781 210.464844 C 73.050781 212.324219 74.535156 214.558594 76.023438 215.671875 C 77.511719 216.789062 79 216.046875 79 213.8125 C 79 211.953125 77.511719 209.351562 76.023438 208.605469 M 49.609375 203.398438 C 48.121094 202.285156 46.632812 203.398438 46.632812 205.257812 C 46.632812 207.117188 48.121094 209.351562 49.609375 210.464844 C 51.097656 211.582031 52.585938 210.464844 52.585938 208.605469 C 52.585938 206.746094 51.097656 204.515625 49.609375 203.398438 M 58.539062 208.605469 C 57.050781 207.492188 55.5625 208.605469 55.5625 210.464844 C 55.5625 212.324219 57.050781 214.558594 58.539062 215.671875 C 60.027344 216.789062 61.515625 215.671875 61.515625 213.8125 C 61.515625 211.953125 60.027344 209.351562 58.539062 208.605469 M 67.097656 213.441406 C 65.609375 212.324219 64.121094 213.441406 64.121094 215.300781 C 64.121094 217.160156 65.609375 219.394531 67.097656 220.507812 C 68.585938 221.625 70.074219 220.507812 70.074219 218.648438 C 70.074219 216.789062 68.957031 214.558594 67.097656 213.441406 M 76.023438 218.648438 C 74.535156 217.535156 73.050781 218.648438 73.050781 220.507812 C 73.050781 222.367188 74.535156 224.601562 76.023438 225.714844 C 77.511719 226.832031 79 225.714844 79 223.855469 C 79 221.996094 77.511719 219.765625 76.023438 218.648438 M 102.8125 173.273438 C 101.324219 172.15625 99.835938 172.898438 99.835938 175.132812 C 99.835938 176.992188 101.324219 179.222656 102.8125 180.339844 C 104.300781 181.453125 105.789062 180.710938 105.789062 178.480469 C 105.789062 176.246094 104.671875 174.015625 102.8125 173.273438 M 102.8125 162.859375 C 101.324219 161.742188 99.835938 162.859375 99.835938 164.71875 C 99.835938 166.578125 101.324219 168.808594 102.8125 169.925781 C 104.300781 171.039062 105.789062 170.296875 105.789062 168.066406 C 106.160156 166.207031 104.671875 163.972656 102.8125 162.859375 M 103.183594 152.816406 C 101.695312 151.699219 100.207031 152.816406 100.207031 154.675781 C 100.207031 156.535156 101.695312 158.765625 103.183594 159.882812 C 104.671875 161 106.160156 160.253906 106.160156 158.023438 C 106.160156 156.164062 104.671875 153.929688 103.183594 152.816406 M 103.183594 142.773438 C 101.695312 141.65625 100.207031 142.773438 100.207031 144.632812 C 100.207031 146.492188 101.695312 148.722656 103.183594 149.839844 C 104.671875 150.957031 106.160156 150.210938 106.160156 147.980469 C 106.160156 146.121094 104.671875 143.890625 103.183594 142.773438 M 111.742188 178.109375 C 110.253906 176.992188 108.765625 177.734375 108.765625 179.96875 C 108.765625 181.828125 110.253906 184.058594 111.742188 185.175781 C 113.226562 186.289062 114.714844 185.546875 114.714844 183.316406 C 114.714844 181.453125 113.226562 179.222656 111.742188 178.109375 M 111.742188 168.066406 C 110.253906 166.949219 108.765625 167.691406 108.765625 169.925781 C 108.765625 171.785156 110.253906 174.015625 111.742188 175.132812 C 113.226562 176.246094 114.714844 175.503906 114.714844 173.273438 C 114.714844 171.414062 113.601562 169.179688 111.742188 168.066406 M 111.742188 158.023438 C 110.253906 156.90625 108.765625 157.652344 108.765625 159.882812 C 108.765625 161.742188 110.253906 163.972656 111.742188 165.089844 C 113.226562 166.207031 114.714844 165.460938 114.714844 163.230469 C 114.714844 161.371094 113.601562 158.765625 111.742188 158.023438 M 111.742188 147.980469 C 110.253906 146.863281 108.765625 147.980469 108.765625 149.839844 C 108.765625 151.699219 110.253906 153.929688 111.742188 155.046875 C 113.226562 156.164062 114.714844 155.417969 114.714844 153.1875 C 114.714844 151.328125 113.601562 148.722656 111.742188 147.980469 M 120.667969 183.316406 C 119.179688 182.199219 117.691406 182.941406 117.691406 185.175781 C 117.691406 187.035156 119.179688 189.265625 120.667969 190.382812 C 122.15625 191.496094 123.644531 190.753906 123.644531 188.523438 C 123.644531 186.664062 122.15625 184.058594 120.667969 183.316406 M 120.667969 173.273438 C 119.179688 172.15625 117.691406 172.898438 117.691406 175.132812 C 117.691406 176.992188 119.179688 179.222656 120.667969 180.339844 C 122.15625 181.453125 123.644531 180.710938 123.644531 178.480469 C 123.644531 176.246094 122.15625 174.015625 120.667969 173.273438 M 120.667969 162.859375 C 119.179688 161.742188 117.691406 162.484375 117.691406 164.71875 C 117.691406 166.578125 119.179688 168.808594 120.667969 169.925781 C 122.15625 171.039062 123.644531 170.296875 123.644531 168.066406 C 123.644531 166.207031 122.15625 163.972656 120.667969 162.859375 M 120.667969 152.816406 C 119.179688 151.699219 117.691406 152.816406 117.691406 154.675781 C 117.691406 156.535156 119.179688 158.765625 120.667969 159.882812 C 122.15625 161 123.644531 160.253906 123.644531 158.023438 C 123.644531 156.164062 122.15625 153.929688 120.667969 152.816406 M 129.226562 188.148438 C 127.738281 187.035156 126.25 187.777344 126.25 190.007812 C 126.25 191.871094 127.738281 194.101562 129.226562 195.21875 C 130.714844 196.332031 132.203125 195.589844 132.203125 193.355469 C 132.203125 191.496094 131.085938 189.265625 129.226562 188.148438 M 129.226562 178.109375 C 127.738281 176.992188 126.25 177.734375 126.25 179.96875 C 126.25 181.828125 127.738281 184.058594 129.226562 185.175781 C 130.714844 186.289062 132.203125 185.175781 132.203125 183.316406 C 132.203125 181.453125 131.085938 179.222656 129.226562 178.109375 M 129.226562 168.066406 C 127.738281 166.949219 126.25 167.691406 126.25 169.925781 C 126.25 171.785156 127.738281 174.015625 129.226562 175.132812 C 130.714844 176.246094 132.203125 175.132812 132.203125 173.273438 C 132.203125 171.414062 131.085938 169.179688 129.226562 168.066406 M 129.597656 158.023438 C 128.109375 156.90625 126.621094 158.023438 126.621094 159.882812 C 126.621094 161.742188 128.109375 163.972656 129.597656 165.089844 C 131.085938 166.207031 132.574219 165.460938 132.574219 163.230469 C 132.203125 161.371094 131.085938 159.136719 129.597656 158.023438 M 102.441406 295.269531 C 100.953125 294.152344 99.464844 295.269531 99.464844 297.128906 C 99.464844 298.988281 100.953125 301.21875 102.441406 302.335938 C 103.925781 303.453125 105.414062 302.707031 105.414062 300.476562 C 105.789062 298.617188 104.300781 296.386719 102.441406 295.269531 M 102.8125 285.226562 C 101.324219 284.109375 99.835938 284.855469 99.835938 287.085938 C 99.835938 288.945312 101.324219 291.175781 102.8125 292.292969 C 104.300781 293.410156 105.789062 292.664062 105.789062 290.433594 C 105.789062 288.574219 104.300781 285.96875 102.8125 285.226562 M 102.8125 275.183594 C 101.324219 274.066406 99.835938 275.183594 99.835938 277.042969 C 99.835938 278.902344 101.324219 281.136719 102.8125 282.25 C 104.300781 283.367188 105.789062 282.621094 105.789062 280.390625 C 105.789062 278.53125 104.300781 275.929688 102.8125 275.183594 M 102.8125 265.140625 C 101.324219 264.027344 99.835938 264.769531 99.835938 267 C 99.835938 268.859375 101.324219 271.09375 102.8125 272.207031 C 104.300781 273.324219 105.789062 272.207031 105.789062 270.347656 C 105.789062 268.117188 104.300781 265.886719 102.8125 265.140625 M 111.367188 300.476562 C 109.878906 299.359375 108.390625 300.105469 108.390625 302.335938 C 108.390625 304.195312 109.878906 306.425781 111.367188 307.542969 C 112.855469 308.660156 114.34375 307.914062 114.34375 305.683594 C 114.34375 303.453125 113.226562 301.21875 111.367188 300.476562 M 111.367188 290.0625 C 109.878906 288.945312 108.390625 289.691406 108.390625 291.921875 C 108.390625 293.78125 109.878906 296.011719 111.367188 297.128906 C 112.855469 298.246094 114.34375 297.5 114.34375 295.269531 C 114.34375 293.410156 113.226562 291.175781 111.367188 290.0625 M 111.367188 280.019531 C 109.878906 278.902344 108.390625 280.019531 108.390625 281.878906 C 108.390625 283.738281 109.878906 285.96875 111.367188 287.085938 C 112.855469 288.203125 114.34375 287.457031 114.34375 285.226562 C 114.34375 283.367188 113.226562 281.136719 111.367188 280.019531 M 111.367188 269.976562 C 109.878906 268.859375 108.390625 269.605469 108.390625 271.835938 C 108.390625 273.695312 109.878906 275.929688 111.367188 277.042969 C 112.855469 278.160156 114.34375 277.042969 114.34375 275.183594 C 114.34375 273.324219 113.226562 271.09375 111.367188 269.976562 M 120.296875 305.3125 C 118.808594 304.195312 117.320312 304.9375 117.320312 307.171875 C 117.320312 309.03125 118.808594 311.261719 120.296875 312.378906 C 121.785156 313.492188 123.273438 312.75 123.273438 310.519531 C 123.273438 308.660156 121.785156 306.425781 120.296875 305.3125 M 120.296875 295.269531 C 118.808594 294.152344 117.320312 294.898438 117.320312 297.128906 C 117.320312 298.988281 118.808594 301.21875 120.296875 302.335938 C 121.785156 303.453125 123.273438 302.707031 123.273438 300.476562 C 123.273438 298.617188 121.785156 296.386719 120.296875 295.269531 M 120.296875 285.226562 C 118.808594 284.109375 117.320312 285.226562 117.320312 287.085938 C 117.320312 288.945312 118.808594 291.175781 120.296875 292.292969 C 121.785156 293.410156 123.273438 292.664062 123.273438 290.433594 C 123.273438 288.574219 121.785156 286.34375 120.296875 285.226562 M 120.296875 275.183594 C 118.808594 274.066406 117.320312 274.8125 117.320312 277.042969 C 117.320312 278.902344 118.808594 281.136719 120.296875 282.25 C 121.785156 283.367188 123.273438 282.25 123.273438 280.390625 C 123.273438 278.53125 121.785156 275.929688 120.296875 275.183594 M 128.855469 310.519531 C 127.367188 309.402344 125.878906 310.148438 125.878906 312.378906 C 125.878906 314.238281 127.367188 316.46875 128.855469 317.585938 C 130.34375 318.703125 131.828125 317.585938 131.828125 315.726562 C 131.828125 313.867188 130.714844 311.261719 128.855469 310.519531 M 128.855469 300.476562 C 127.367188 299.359375 125.878906 300.105469 125.878906 302.335938 C 125.878906 304.195312 127.367188 306.425781 128.855469 307.542969 C 130.34375 308.660156 131.828125 307.542969 131.828125 305.683594 C 131.828125 303.453125 130.714844 301.21875 128.855469 300.476562 M 129.226562 290.433594 C 127.738281 289.316406 126.25 290.433594 126.25 292.292969 C 126.25 294.152344 127.738281 296.386719 129.226562 297.5 C 130.714844 298.617188 132.203125 297.5 132.203125 295.640625 C 131.828125 293.410156 130.714844 291.175781 129.226562 290.433594 M 129.226562 280.390625 C 127.738281 279.277344 126.25 280.019531 126.25 282.25 C 126.25 284.109375 127.738281 286.34375 129.226562 287.457031 C 130.714844 288.574219 132.203125 287.457031 132.203125 285.597656 C 132.203125 283.367188 130.714844 281.136719 129.226562 280.390625 "/>
</g>
<path style=" stroke:none;fill-rule:nonzero;fill:rgb(76.858521%,79.60968%,79.219055%);fill-opacity:1;" d="M 243.4375 118.96875 C 244.925781 120.085938 244.925781 121.574219 243.4375 122.316406 C 241.953125 123.433594 238.976562 123.433594 237.488281 122.316406 C 236 121.199219 236 119.710938 237.488281 118.96875 C 239.347656 117.851562 241.953125 117.851562 243.4375 118.96875 M 252.367188 124.175781 C 250.878906 123.058594 247.902344 123.058594 246.414062 124.175781 C 244.925781 125.292969 244.925781 126.78125 246.414062 127.523438 C 247.902344 128.640625 250.878906 128.640625 252.367188 127.523438 C 254.226562 126.40625 253.855469 124.921875 252.367188 124.175781 M 261.296875 129.011719 C 259.808594 127.894531 256.832031 127.894531 255.34375 129.011719 C 253.855469 130.128906 253.855469 131.613281 255.34375 132.359375 C 256.832031 133.476562 259.808594 133.476562 261.296875 132.359375 C 262.785156 131.613281 262.785156 130.128906 261.296875 129.011719 M 269.855469 134.21875 C 268.367188 133.101562 265.390625 133.101562 263.902344 134.21875 C 262.414062 135.335938 262.414062 136.820312 263.902344 137.566406 C 265.390625 138.683594 268.367188 138.683594 269.855469 137.566406 C 271.714844 136.820312 271.714844 134.960938 269.855469 134.21875 M 234.882812 124.175781 C 233.394531 123.058594 230.417969 123.058594 228.929688 124.175781 C 227.441406 125.292969 227.441406 126.78125 228.929688 127.523438 C 230.417969 128.640625 233.394531 128.640625 234.882812 127.523438 C 236.371094 126.40625 236.371094 124.921875 234.882812 124.175781 M 243.8125 129.011719 C 242.324219 127.894531 239.347656 127.894531 237.859375 129.011719 C 236.371094 130.128906 236.371094 131.613281 237.859375 132.359375 C 239.347656 133.476562 242.324219 133.476562 243.8125 132.359375 C 245.300781 131.613281 245.300781 130.128906 243.8125 129.011719 M 252.367188 134.21875 C 250.878906 133.101562 247.902344 133.101562 246.414062 134.21875 C 244.925781 135.335938 244.925781 136.820312 246.414062 137.566406 C 247.902344 138.683594 250.878906 138.683594 252.367188 137.566406 C 254.226562 136.820312 254.226562 134.960938 252.367188 134.21875 M 261.296875 139.425781 C 259.808594 138.308594 256.832031 138.308594 255.34375 139.425781 C 253.855469 140.542969 253.855469 142.027344 255.34375 142.773438 C 256.832031 143.890625 259.808594 143.890625 261.296875 142.773438 C 262.785156 141.65625 262.785156 140.167969 261.296875 139.425781 M 225.953125 129.011719 C 224.464844 127.894531 221.488281 127.894531 220 129.011719 C 218.511719 130.128906 218.511719 131.613281 220 132.359375 C 221.488281 133.476562 224.464844 133.476562 225.953125 132.359375 C 227.8125 131.613281 227.8125 130.128906 225.953125 129.011719 M 234.882812 134.21875 C 233.394531 133.101562 230.417969 133.101562 228.929688 134.21875 C 227.441406 135.335938 227.441406 136.820312 228.929688 137.566406 C 230.417969 138.683594 233.394531 138.683594 234.882812 137.566406 C 236.742188 136.820312 236.742188 134.960938 234.882812 134.21875 M 243.8125 139.425781 C 242.324219 138.308594 239.347656 138.308594 237.859375 139.425781 C 236.371094 140.542969 236.371094 142.027344 237.859375 142.773438 C 239.347656 143.890625 242.324219 143.890625 243.8125 142.773438 C 245.300781 141.65625 245.300781 140.167969 243.8125 139.425781 M 252.367188 144.261719 C 250.878906 143.144531 247.902344 143.144531 246.414062 144.261719 C 244.925781 145.375 244.925781 146.863281 246.414062 147.609375 C 247.902344 148.722656 250.878906 148.722656 252.367188 147.609375 C 254.226562 146.863281 254.226562 145.375 252.367188 144.261719 M 217.398438 134.21875 C 215.910156 133.101562 212.933594 133.101562 211.445312 134.21875 C 209.957031 135.335938 209.957031 136.820312 211.445312 137.566406 C 212.933594 138.683594 215.910156 138.683594 217.398438 137.566406 C 218.886719 136.449219 218.886719 134.960938 217.398438 134.21875 M 226.324219 139.425781 C 224.835938 138.308594 221.863281 138.308594 220.375 139.425781 C 218.886719 140.542969 218.886719 142.027344 220.375 142.773438 C 221.863281 143.890625 224.835938 143.890625 226.324219 142.773438 C 227.8125 141.65625 227.8125 140.167969 226.324219 139.425781 M 234.882812 144.261719 C 233.394531 143.144531 230.417969 143.144531 228.929688 144.261719 C 227.441406 145.375 227.441406 146.863281 228.929688 147.609375 C 230.417969 148.722656 233.394531 148.722656 234.882812 147.609375 C 236.742188 146.863281 236.742188 145.375 234.882812 144.261719 M 243.8125 149.46875 C 242.324219 148.351562 239.347656 148.351562 237.859375 149.46875 C 236.371094 150.582031 236.371094 152.070312 237.859375 152.816406 C 239.347656 153.929688 242.324219 153.929688 243.8125 152.816406 C 245.300781 151.699219 245.300781 150.210938 243.8125 149.46875 M 137.410156 57.597656 C 135.921875 56.484375 132.945312 56.484375 131.457031 57.597656 C 129.96875 58.714844 129.96875 60.203125 131.457031 60.945312 C 132.945312 62.0625 135.921875 62.0625 137.410156 60.945312 C 138.898438 60.203125 138.898438 58.714844 137.410156 57.597656 M 145.96875 62.804688 C 144.480469 61.691406 141.503906 61.691406 140.015625 62.804688 C 138.527344 63.921875 138.527344 65.410156 140.015625 66.152344 C 141.503906 67.269531 144.480469 67.269531 145.96875 66.152344 C 147.828125 65.039062 147.828125 63.550781 145.96875 62.804688 M 154.894531 67.640625 C 153.40625 66.523438 150.429688 66.523438 148.945312 67.640625 C 147.457031 68.757812 147.457031 70.246094 148.945312 70.988281 C 150.429688 72.105469 153.40625 72.105469 154.894531 70.988281 C 156.382812 70.246094 156.382812 68.757812 154.894531 67.640625 M 163.453125 72.847656 C 161.964844 71.734375 159.359375 71.734375 157.5 72.847656 C 156.011719 73.964844 156.011719 75.453125 157.5 76.195312 C 158.988281 77.3125 161.964844 77.3125 163.453125 76.195312 C 165.3125 75.453125 165.3125 73.59375 163.453125 72.847656 M 128.480469 62.804688 C 126.992188 61.691406 124.015625 61.691406 122.527344 62.804688 C 121.042969 63.921875 121.042969 65.410156 122.527344 66.152344 C 124.015625 67.269531 126.992188 67.269531 128.480469 66.152344 C 130.34375 65.039062 130.34375 63.550781 128.480469 62.804688 M 137.410156 67.640625 C 135.921875 66.523438 132.945312 66.523438 131.457031 67.640625 C 129.96875 68.757812 129.96875 70.246094 131.457031 70.988281 C 132.945312 72.105469 135.921875 72.105469 137.410156 70.988281 C 138.898438 70.246094 138.898438 68.757812 137.410156 67.640625 M 145.96875 72.847656 C 144.480469 71.734375 141.503906 71.734375 140.015625 72.847656 C 138.527344 73.964844 138.527344 75.453125 140.015625 76.195312 C 141.503906 77.3125 144.480469 77.3125 145.96875 76.195312 C 147.828125 75.453125 147.828125 73.59375 145.96875 72.847656 M 154.894531 77.683594 C 153.40625 76.566406 150.429688 76.566406 148.945312 77.683594 C 147.457031 78.800781 147.457031 80.285156 148.945312 81.03125 C 150.429688 82.148438 153.40625 82.148438 154.894531 81.03125 C 156.382812 80.285156 156.382812 78.800781 154.894531 77.683594 M 119.925781 67.640625 C 118.4375 66.523438 115.460938 66.523438 113.972656 67.640625 C 112.484375 68.757812 112.484375 70.246094 113.972656 70.988281 C 115.460938 72.105469 118.4375 72.105469 119.925781 70.988281 C 121.414062 70.246094 121.414062 68.757812 119.925781 67.640625 M 128.480469 72.847656 C 126.992188 71.734375 124.015625 71.734375 122.527344 72.847656 C 121.042969 73.59375 121.042969 75.453125 122.527344 76.195312 C 124.015625 77.3125 126.992188 77.3125 128.480469 76.195312 C 130.34375 75.453125 130.34375 73.59375 128.480469 72.847656 M 137.410156 77.683594 C 135.921875 76.566406 132.945312 76.566406 131.457031 77.683594 C 129.96875 78.800781 129.96875 80.285156 131.457031 81.03125 C 132.945312 82.148438 135.921875 82.148438 137.410156 81.03125 C 138.898438 80.285156 138.898438 78.800781 137.410156 77.683594 M 145.96875 82.890625 C 144.480469 81.773438 141.503906 81.773438 140.015625 82.890625 C 138.527344 84.007812 138.527344 85.496094 140.015625 86.238281 C 141.503906 87.355469 144.480469 87.355469 145.96875 86.238281 C 147.828125 85.496094 147.828125 84.007812 145.96875 82.890625 M 110.996094 72.847656 C 109.507812 71.734375 106.53125 71.734375 105.042969 72.847656 C 103.554688 73.964844 103.554688 75.453125 105.042969 76.195312 C 106.53125 77.3125 109.507812 77.3125 110.996094 76.195312 C 112.855469 75.453125 112.855469 73.59375 110.996094 72.847656 M 119.925781 77.683594 C 118.4375 76.566406 115.460938 76.566406 113.972656 77.683594 C 112.484375 78.800781 112.484375 80.285156 113.972656 81.03125 C 115.460938 82.148438 118.4375 82.148438 119.925781 81.03125 C 121.414062 80.285156 121.414062 78.800781 119.925781 77.683594 M 128.480469 82.890625 C 126.992188 81.773438 124.015625 81.773438 122.527344 82.890625 C 121.042969 84.007812 121.042969 85.496094 122.527344 86.238281 C 124.015625 87.355469 126.992188 87.355469 128.480469 86.238281 C 130.34375 85.496094 130.34375 84.007812 128.480469 82.890625 M 137.410156 88.097656 C 135.921875 86.980469 132.945312 86.980469 131.457031 88.097656 C 129.96875 89.214844 129.96875 90.703125 131.457031 91.445312 C 132.945312 92.5625 135.921875 92.5625 137.410156 91.445312 C 138.898438 90.328125 138.898438 88.839844 137.410156 88.097656 M 217.023438 72.847656 C 215.535156 71.734375 212.5625 71.734375 211.074219 72.847656 C 209.585938 73.964844 209.585938 75.453125 211.074219 76.195312 C 212.5625 77.3125 215.535156 77.3125 217.023438 76.195312 C 218.886719 75.453125 218.886719 73.59375 217.023438 72.847656 M 225.953125 67.640625 C 224.464844 66.523438 221.488281 66.523438 220 67.640625 C 218.511719 68.757812 218.511719 70.246094 220 70.988281 C 221.488281 72.105469 224.464844 72.105469 225.953125 70.988281 C 227.441406 70.246094 227.441406 68.757812 225.953125 67.640625 M 234.511719 62.804688 C 233.023438 61.691406 230.046875 61.691406 228.558594 62.804688 C 227.070312 63.921875 227.070312 65.410156 228.558594 66.152344 C 230.046875 67.269531 233.023438 67.269531 234.511719 66.152344 C 236 65.039062 236 63.550781 234.511719 62.804688 M 243.4375 57.597656 C 241.953125 56.484375 238.976562 56.484375 237.488281 57.597656 C 236 58.714844 236 60.203125 237.488281 60.945312 C 238.976562 62.0625 241.953125 62.0625 243.4375 60.945312 C 244.925781 60.203125 244.925781 58.34375 243.4375 57.597656 M 225.953125 77.683594 C 224.464844 76.566406 221.488281 76.566406 220 77.683594 C 218.511719 78.800781 218.511719 80.285156 220 81.03125 C 221.488281 82.148438 224.464844 82.148438 225.953125 81.03125 C 227.441406 80.285156 227.441406 78.800781 225.953125 77.683594 M 234.511719 72.847656 C 233.023438 71.734375 230.046875 71.734375 228.558594 72.847656 C 227.070312 73.964844 227.070312 75.453125 228.558594 76.195312 C 230.046875 77.3125 233.023438 77.3125 234.511719 76.195312 C 236.371094 75.453125 236.371094 73.59375 234.511719 72.847656 M 243.4375 67.640625 C 241.953125 66.523438 238.976562 66.523438 237.488281 67.640625 C 236 68.757812 236 70.246094 237.488281 70.988281 C 238.976562 72.105469 241.953125 72.105469 243.4375 70.988281 C 244.925781 70.246094 244.925781 68.757812 243.4375 67.640625 M 251.996094 62.804688 C 250.507812 61.691406 247.53125 61.691406 246.042969 62.804688 C 244.554688 63.921875 244.554688 65.410156 246.042969 66.152344 C 247.53125 67.269531 250.507812 67.269531 251.996094 66.152344 C 253.855469 65.039062 253.855469 63.550781 251.996094 62.804688 M 234.511719 82.890625 C 233.023438 81.773438 230.046875 81.773438 228.558594 82.890625 C 227.070312 84.007812 227.070312 85.496094 228.558594 86.238281 C 230.046875 87.355469 233.023438 87.355469 234.511719 86.238281 C 236.371094 85.496094 236.371094 84.007812 234.511719 82.890625 M 243.4375 77.683594 C 241.953125 76.566406 238.976562 76.566406 237.488281 77.683594 C 236 78.800781 236 80.285156 237.488281 81.03125 C 238.976562 82.148438 241.953125 82.148438 243.4375 81.03125 C 244.925781 80.285156 244.925781 78.800781 243.4375 77.683594 M 251.996094 72.847656 C 250.507812 71.734375 247.53125 71.734375 246.042969 72.847656 C 244.554688 73.964844 244.554688 75.453125 246.042969 76.195312 C 247.53125 77.3125 250.507812 77.3125 251.996094 76.195312 C 253.855469 75.453125 253.855469 73.59375 251.996094 72.847656 M 260.925781 67.640625 C 259.4375 66.523438 256.460938 66.523438 254.972656 67.640625 C 253.484375 68.757812 253.484375 70.246094 254.972656 70.988281 C 256.460938 72.105469 259.4375 72.105469 260.925781 70.988281 C 262.414062 69.871094 262.414062 68.757812 260.925781 67.640625 M 243.4375 88.097656 C 241.953125 86.980469 238.976562 86.980469 237.488281 88.097656 C 236 89.214844 236 90.703125 237.488281 91.445312 C 238.976562 92.5625 241.953125 92.5625 243.4375 91.445312 C 244.925781 90.328125 244.925781 88.839844 243.4375 88.097656 M 251.996094 82.890625 C 250.507812 81.773438 247.53125 81.773438 246.042969 82.890625 C 244.554688 84.007812 244.554688 85.496094 246.042969 86.238281 C 247.53125 87.355469 250.507812 87.355469 251.996094 86.238281 C 253.855469 85.496094 253.855469 84.007812 251.996094 82.890625 M 260.925781 77.683594 C 259.4375 76.566406 256.460938 76.566406 254.972656 77.683594 C 253.484375 78.800781 253.484375 80.285156 254.972656 81.03125 C 256.460938 82.148438 259.4375 82.148438 260.925781 81.03125 C 262.414062 80.285156 262.414062 78.800781 260.925781 77.683594 M 269.480469 72.847656 C 267.992188 71.734375 265.015625 71.734375 263.527344 72.847656 C 262.042969 73.964844 262.042969 75.453125 263.527344 76.195312 C 265.015625 77.3125 267.992188 77.3125 269.480469 76.195312 C 271.34375 75.453125 271.34375 73.59375 269.480469 72.847656 M 111.367188 134.21875 C 109.878906 133.101562 106.902344 133.101562 105.414062 134.21875 C 103.925781 135.335938 103.925781 136.820312 105.414062 137.566406 C 106.902344 138.683594 109.878906 138.683594 111.367188 137.566406 C 113.226562 136.820312 113.226562 134.960938 111.367188 134.21875 M 120.296875 129.011719 C 118.808594 127.894531 115.832031 127.894531 114.34375 129.011719 C 112.855469 130.128906 112.855469 131.613281 114.34375 132.359375 C 115.832031 133.476562 118.808594 133.476562 120.296875 132.359375 C 121.785156 131.242188 121.785156 130.128906 120.296875 129.011719 M 128.855469 124.175781 C 127.367188 123.058594 124.390625 123.058594 122.902344 124.175781 C 121.414062 125.292969 121.414062 126.78125 122.902344 127.523438 C 124.390625 128.640625 127.367188 128.640625 128.855469 127.523438 C 130.34375 126.40625 130.34375 124.921875 128.855469 124.175781 M 137.410156 118.96875 C 135.921875 117.851562 132.945312 117.851562 131.457031 118.96875 C 129.96875 120.085938 129.96875 121.574219 131.457031 122.316406 C 132.945312 123.433594 135.921875 123.433594 137.410156 122.316406 C 139.269531 121.574219 139.269531 120.085938 137.410156 118.96875 M 120.296875 139.425781 C 118.808594 138.308594 115.832031 138.308594 114.34375 139.425781 C 112.855469 140.542969 112.855469 142.027344 114.34375 142.773438 C 115.832031 143.890625 118.808594 143.890625 120.296875 142.773438 C 121.785156 141.65625 121.785156 140.167969 120.296875 139.425781 M 128.855469 134.21875 C 127.367188 133.101562 124.390625 133.101562 122.902344 134.21875 C 121.414062 135.335938 121.414062 136.820312 122.902344 137.566406 C 124.390625 138.683594 127.367188 138.683594 128.855469 137.566406 C 130.714844 136.820312 130.714844 134.960938 128.855469 134.21875 M 137.78125 129.011719 C 136.292969 127.894531 133.316406 127.894531 131.828125 129.011719 C 130.34375 130.128906 130.34375 131.613281 131.828125 132.359375 C 133.316406 133.476562 136.292969 133.476562 137.78125 132.359375 C 139.269531 131.613281 139.269531 130.128906 137.78125 129.011719 M 146.339844 124.175781 C 144.851562 123.058594 141.875 123.058594 140.386719 124.175781 C 138.898438 125.292969 138.898438 126.78125 140.386719 127.523438 C 141.875 128.640625 144.851562 128.640625 146.339844 127.523438 C 148.199219 126.40625 148.199219 124.921875 146.339844 124.175781 M 128.855469 144.261719 C 127.367188 143.144531 124.390625 143.144531 122.902344 144.261719 C 121.414062 145.375 121.414062 146.863281 122.902344 147.609375 C 124.390625 148.722656 127.367188 148.722656 128.855469 147.609375 C 130.714844 146.863281 130.714844 145.375 128.855469 144.261719 M 137.78125 139.425781 C 136.292969 138.308594 133.316406 138.308594 131.828125 139.425781 C 130.34375 140.542969 130.34375 142.027344 131.828125 142.773438 C 133.316406 143.890625 136.292969 143.890625 137.78125 142.773438 C 139.269531 141.65625 139.269531 140.167969 137.78125 139.425781 M 146.339844 134.21875 C 144.851562 133.101562 141.875 133.101562 140.386719 134.21875 C 138.898438 135.335938 138.898438 136.820312 140.386719 137.566406 C 141.875 138.683594 144.851562 138.683594 146.339844 137.566406 C 148.199219 136.820312 148.199219 134.960938 146.339844 134.21875 M 155.269531 129.011719 C 153.78125 127.894531 150.804688 127.894531 149.316406 129.011719 C 147.828125 130.128906 147.828125 131.613281 149.316406 132.359375 C 150.804688 133.476562 153.78125 133.476562 155.269531 132.359375 C 156.757812 131.613281 156.757812 130.128906 155.269531 129.011719 M 137.78125 149.46875 C 136.292969 148.351562 133.316406 148.351562 131.828125 149.46875 C 130.34375 150.582031 130.34375 152.070312 131.828125 152.816406 C 133.316406 153.929688 136.292969 153.929688 137.78125 152.816406 C 139.269531 151.699219 139.269531 150.210938 137.78125 149.46875 M 146.339844 144.261719 C 144.851562 143.144531 141.875 143.144531 140.386719 144.261719 C 138.898438 145.375 138.898438 146.863281 140.386719 147.609375 C 141.875 148.722656 144.851562 148.722656 146.339844 147.609375 C 148.199219 146.863281 148.199219 145.375 146.339844 144.261719 M 155.269531 139.425781 C 153.78125 138.308594 150.804688 138.308594 149.316406 139.425781 C 147.828125 140.542969 147.828125 142.027344 149.316406 142.773438 C 150.804688 143.890625 153.78125 143.890625 155.269531 142.773438 C 156.757812 141.65625 156.757812 140.167969 155.269531 139.425781 M 163.824219 134.21875 C 162.335938 133.101562 159.359375 133.101562 157.871094 134.21875 C 156.382812 135.335938 156.382812 136.820312 157.871094 137.566406 C 159.359375 138.683594 162.335938 138.683594 163.824219 137.566406 C 165.683594 136.820312 165.683594 134.960938 163.824219 134.21875 "/>
</g>
</svg>
